<svg width="425" height="132" viewBox="0 0 425 132" fill="none" xmlns="http://www.w3.org/2000/svg">
<g filter="url(#filter0_d_309_291)">
<path d="M147.374 98.8001L151.187 57.0817L157.069 52.9539L178.895 58.7509L199.968 52.7513L205.988 57.1229L208.274 98.7126L198.876 99.257L196.817 63.5663L183.133 67.331L183.475 98.9297L174.176 99.1736L173.733 67.2753L160.116 63.5396L156.777 99.5558L147.374 98.8001ZM222.065 96.9475L218.241 91.6655L222.882 56.0432L227.064 52.0234L256.353 49.4851L260.964 51.9633L269.539 68.723L266.269 75.4385L235.198 82.0853L233.158 72.9948L258.233 67.4764L253.996 59.1963L231.604 61.002L228.127 88.5188L262.555 94.7563L260.797 103.965L222.065 96.9475ZM274.695 98.799L288.706 34.0321L297.914 35.9887L284.004 100.755L274.695 98.799ZM295.12 81.8024L294.989 75.0029L315.102 55.6078L321.633 62.377L305.203 78.1547L325.984 96.0568L319.816 103.186L295.12 81.8024ZM331.042 98.533L345.053 33.7661L354.261 35.7227L340.351 100.489L331.042 98.533ZM351.467 81.5364L351.336 74.7369L371.449 55.3417L377.98 62.111L361.55 77.8887L382.331 95.7908L376.163 102.92L351.467 81.5364ZM390.645 43.551L399.733 41.008L402.783 52.1937L393.695 54.7367L390.645 43.551ZM388.398 100.262L393.121 60.5395L402.525 61.5951L397.803 101.318L388.398 100.262Z" fill="black"/>
</g>
<g filter="url(#filter1_d_309_291)">
<path d="M147.374 98.8003L151.187 57.0818L157.069 52.954L178.895 58.751L199.968 52.7514L205.988 57.1231L208.274 98.7127L198.876 99.2571L196.817 63.5664L183.133 67.3311L183.475 98.9298L174.176 99.1737L173.733 67.2755L160.116 63.5397L156.777 99.5559L147.374 98.8003ZM222.065 96.9476L218.241 91.6656L222.882 56.0433L227.064 52.0235L256.353 49.4852L260.964 51.9634L269.539 68.7231L266.269 75.4387L235.198 82.0854L233.158 72.995L258.233 67.4765L253.996 59.1964L231.604 61.0022L228.127 88.5189L262.555 94.7564L260.797 103.965L222.065 96.9476ZM274.695 98.7991L288.706 34.0323L297.914 35.9888L284.004 100.755L274.695 98.7991ZM295.12 81.8025L294.989 75.0031L315.102 55.6079L321.633 62.3771L305.203 78.1549L325.984 96.057L319.816 103.186L295.12 81.8025ZM331.042 98.5331L345.053 33.7662L354.261 35.7228L340.351 100.489L331.042 98.5331ZM351.467 81.5365L351.336 74.737L371.449 55.3418L377.98 62.1111L361.55 77.8888L382.331 95.7909L376.163 102.92L351.467 81.5365ZM390.645 43.5511L399.733 41.0081L402.783 52.1939L393.695 54.7368L390.645 43.5511ZM388.398 100.262L393.121 60.5396L402.525 61.5952L397.803 101.318L388.398 100.262Z" fill="black"/>
</g>
<g filter="url(#filter2_d_309_291)">
<path d="M147.374 98.8001L151.187 57.0817L157.069 52.9539L178.895 58.7509L199.968 52.7513L205.988 57.1229L208.274 98.7126L198.876 99.257L196.817 63.5663L183.133 67.331L183.475 98.9297L174.176 99.1736L173.733 67.2753L160.116 63.5396L156.777 99.5558L147.374 98.8001ZM222.065 96.9475L218.241 91.6655L222.882 56.0432L227.064 52.0234L256.353 49.4851L260.964 51.9633L269.539 68.723L266.269 75.4385L235.198 82.0853L233.158 72.9948L258.233 67.4764L253.996 59.1963L231.604 61.002L228.127 88.5188L262.555 94.7563L260.797 103.965L222.065 96.9475ZM274.695 98.799L288.706 34.0321L297.914 35.9887L284.004 100.755L274.695 98.799ZM295.12 81.8024L294.989 75.0029L315.102 55.6078L321.633 62.377L305.203 78.1547L325.984 96.0568L319.816 103.186L295.12 81.8024ZM331.042 98.533L345.053 33.7661L354.261 35.7227L340.351 100.489L331.042 98.533ZM351.467 81.5364L351.336 74.7369L371.449 55.3417L377.98 62.111L361.55 77.8887L382.331 95.7908L376.163 102.92L351.467 81.5364ZM390.645 43.551L399.733 41.008L402.783 52.1937L393.695 54.7367L390.645 43.551ZM388.398 100.262L393.121 60.5395L402.525 61.5951L397.803 101.318L388.398 100.262Z" fill="black"/>
</g>
<g filter="url(#filter3_d_309_291)">
<path d="M147.374 98.8001L151.187 57.0817L157.069 52.9539L178.895 58.7509L199.968 52.7513L205.988 57.1229L208.274 98.7126L198.876 99.257L196.817 63.5663L183.133 67.331L183.475 98.9297L174.176 99.1736L173.733 67.2753L160.116 63.5396L156.777 99.5558L147.374 98.8001ZM222.065 96.9475L218.241 91.6655L222.882 56.0432L227.064 52.0234L256.353 49.4851L260.964 51.9633L269.539 68.723L266.269 75.4385L235.198 82.0853L233.158 72.9948L258.233 67.4764L253.996 59.1963L231.604 61.002L228.127 88.5188L262.555 94.7563L260.797 103.965L222.065 96.9475ZM274.695 98.799L288.706 34.0321L297.914 35.9887L284.004 100.755L274.695 98.799ZM295.12 81.8024L294.989 75.0029L315.102 55.6078L321.633 62.377L305.203 78.1547L325.984 96.0568L319.816 103.186L295.12 81.8024ZM331.042 98.533L345.053 33.7661L354.261 35.7227L340.351 100.489L331.042 98.533ZM351.467 81.5364L351.336 74.7369L371.449 55.3417L377.98 62.111L361.55 77.8887L382.331 95.7908L376.163 102.92L351.467 81.5364ZM390.645 43.551L399.733 41.008L402.783 52.1937L393.695 54.7367L390.645 43.551ZM388.398 100.262L393.121 60.5395L402.525 61.5951L397.803 101.318L388.398 100.262Z" fill="black"/>
</g>
<g filter="url(#filter4_d_309_291)">
<path d="M148.374 98.8003L152.187 57.0818L158.069 52.954L179.895 58.751L200.968 52.7514L206.988 57.1231L209.274 98.7127L199.876 99.2571L197.817 63.5664L184.133 67.3311L184.475 98.9298L175.176 99.1737L174.733 67.2755L161.116 63.5397L157.777 99.5559L148.374 98.8003ZM223.065 96.9476L219.241 91.6656L223.882 56.0433L228.064 52.0235L257.353 49.4852L261.964 51.9634L270.539 68.7231L267.269 75.4387L236.198 82.0854L234.158 72.995L259.233 67.4765L254.996 59.1964L232.604 61.0022L229.127 88.5189L263.555 94.7564L261.797 103.965L223.065 96.9476ZM275.695 98.7991L289.706 34.0323L298.914 35.9888L285.004 100.755L275.695 98.7991ZM296.12 81.8025L295.989 75.0031L316.102 55.6079L322.633 62.3771L306.203 78.1549L326.984 96.057L320.816 103.186L296.12 81.8025ZM332.042 98.5331L346.053 33.7662L355.261 35.7228L341.351 100.489L332.042 98.5331ZM352.467 81.5365L352.336 74.737L372.449 55.3418L378.98 62.1111L362.55 77.8888L383.331 95.7909L377.163 102.92L352.467 81.5365ZM391.645 43.5511L400.733 41.0081L403.783 52.1939L394.695 54.7368L391.645 43.5511ZM389.398 100.262L394.121 60.5396L403.525 61.5952L398.803 101.318L389.398 100.262Z" fill="black"/>
</g>
<g filter="url(#filter5_dd_309_291)">
<g filter="url(#filter6_d_309_291)">
<path d="M71.573 69.1734C85.8233 88.3436 121.465 88.6007 97.3754 103.884C73.2861 119.167 85.8233 88.3436 71.573 69.1734C57.3227 50.0032 21.6812 49.7461 45.7706 34.4628C69.86 19.1794 57.3227 50.0032 71.573 69.1734Z" fill="white"/>
</g>
<g filter="url(#filter7_d_309_291)">
<path d="M71.5722 69.1737C96.3024 73.9768 122.573 51.5991 116.35 77.8706C110.128 104.142 96.3024 73.9768 71.5722 69.1737C46.842 64.3705 20.5715 86.7483 26.7942 60.4767C33.0169 34.2052 46.842 64.3705 71.5722 69.1737Z" fill="#BFFFF3"/>
</g>
<g filter="url(#filter8_i_309_291)">
<path d="M71.573 69.1729C93.1004 56.7539 95.3517 19.2841 110.552 46.6864C121.597 71.5797 93.1004 56.7539 71.573 69.1729C50.0455 81.5919 47.9281 114.382 32.5941 91.6594C17.2601 68.9369 50.0455 81.5919 71.573 69.1729Z" fill="#7FFFD4"/>
<path d="M71.573 69.1729C93.1004 56.7539 95.3517 19.2841 110.552 46.6864C121.597 71.5797 93.1004 56.7539 71.573 69.1729C50.0455 81.5919 47.9281 114.382 32.5941 91.6594C17.2601 68.9369 50.0455 81.5919 71.573 69.1729Z" fill="#B35555" fill-opacity="0.2"/>
</g>
<g filter="url(#filter9_d_309_291)">
<path d="M71.5736 69.1711C84.0026 42.4488 42.3915 18.4872 71.6854 15.8269C103.55 19.4336 82.5568 45.5573 71.5736 69.1711C63.4474 94.7509 89.1843 114.712 60.6018 109.515C32.0192 104.319 64.5728 95.6683 71.5736 69.1711Z" fill="#464541"/>
</g>
<g filter="url(#filter10_d_309_291)">
<path d="M71.5742 69.1711C84.5068 43.1218 43.8637 17.1291 73.2564 15.0487C104.964 19.4758 83.5171 45.1154 71.5742 69.1711C65.7375 91.9005 88.6661 116.421 60.3051 110.431C31.944 104.441 65.7375 91.9005 71.5742 69.1711Z" fill="#59B2A2"/>
</g>
</g>
<g filter="url(#filter11_dd_309_291)">
<g filter="url(#filter12_d_309_291)">
<path d="M71.4375 68.4974C85.6878 87.6675 121.329 87.9247 97.2399 103.208C73.1506 118.491 85.6878 87.6675 71.4375 68.4974C57.1872 49.3272 21.5457 49.0701 45.6351 33.7867C69.7245 18.5034 57.1872 49.3272 71.4375 68.4974Z" fill="white"/>
</g>
<g filter="url(#filter13_d_309_291)">
<path d="M71.4369 68.4976C96.1671 73.3008 122.438 50.923 116.215 77.1946C109.992 103.466 96.1671 73.3008 71.4369 68.4976C46.7067 63.6944 20.4363 86.0722 26.6589 59.8007C32.8816 33.5291 46.7067 63.6944 71.4369 68.4976Z" fill="#BFFFF3"/>
</g>
<g filter="url(#filter14_i_309_291)">
<path d="M71.4375 68.4969C92.9649 56.0779 95.2161 18.608 110.416 46.0104C121.461 70.9037 92.9649 56.0779 71.4375 68.4969C49.91 80.9158 47.7926 113.706 32.4586 90.9834C17.1246 68.2609 49.91 80.9158 71.4375 68.4969Z" fill="#7FFFD4"/>
<path d="M71.4375 68.4969C92.9649 56.0779 95.2161 18.608 110.416 46.0104C121.461 70.9037 92.9649 56.0779 71.4375 68.4969C49.91 80.9158 47.7926 113.706 32.4586 90.9834C17.1246 68.2609 49.91 80.9158 71.4375 68.4969Z" fill="#B35555" fill-opacity="0.2"/>
</g>
<g filter="url(#filter15_d_309_291)">
<path d="M71.4383 68.4952C83.8673 41.7729 42.2562 17.8113 71.5502 15.151C103.415 18.7577 82.4215 44.8814 71.4383 68.4952C63.3122 94.075 89.049 114.036 60.4665 108.839C31.884 103.643 64.4376 94.9924 71.4383 68.4952Z" fill="#464541"/>
</g>
<g filter="url(#filter16_d_309_291)">
<path d="M71.439 68.4951C84.3716 42.4458 43.7285 16.453 73.1212 14.3727C104.828 18.7998 83.3818 44.4394 71.439 68.4951C65.6022 91.2245 88.5309 115.745 60.1698 109.755C31.8088 103.765 65.6022 91.2245 71.439 68.4951Z" fill="#59B2A2"/>
</g>
<g filter="url(#filter17_dd_309_291)">
<g filter="url(#filter18_d_309_291)">
<path d="M71.4378 68.892C85.688 88.0622 121.33 88.3193 97.2402 103.603C73.1508 118.886 85.688 88.0622 71.4378 68.892C57.1875 49.7219 21.546 49.4648 45.6353 34.1814C69.7247 18.898 57.1875 49.7219 71.4378 68.892Z" fill="white"/>
</g>
<g filter="url(#filter19_d_309_291)">
<path d="M72.1437 68.4952C96.8739 73.2984 123.144 50.9206 116.922 77.1921C110.699 103.464 96.8739 73.2984 72.1437 68.4952C47.4135 63.692 21.1431 86.0698 27.3657 59.7982C33.5884 33.5267 47.4135 63.692 72.1437 68.4952Z" fill="#BFFFF3"/>
</g>
<g filter="url(#filter20_i_309_291)">
<path d="M71.4377 68.8915C92.9652 56.4726 95.2164 19.0027 110.417 46.405C121.461 71.2983 92.9652 56.4726 71.4377 68.8915C49.9103 81.3105 47.7928 114.101 32.4588 91.378C17.1248 68.6555 49.9103 81.3105 71.4377 68.8915Z" fill="#7FFFD4"/>
</g>
<g filter="url(#filter21_d_309_291)">
<path d="M71.4386 68.8898C83.8676 42.1675 42.2565 18.2058 71.5504 15.5455C103.415 19.1522 82.4218 45.276 71.4386 68.8898C63.3124 94.4695 89.0493 114.431 60.4668 109.234C31.8842 104.037 64.4378 95.3869 71.4386 68.8898Z" fill="#464541"/>
</g>
<g filter="url(#filter22_d_309_291)">
<path d="M71.439 68.8896C84.3716 42.8403 43.7284 16.8476 73.1212 14.7673C104.828 19.1944 83.3818 44.834 71.439 68.8896C65.6022 91.619 88.5309 116.139 60.1698 110.149C31.8088 104.16 65.6022 91.619 71.439 68.8896Z" fill="#59B2A2"/>
</g>
</g>
</g>
<defs>
<filter id="filter0_d_309_291" x="143.087" y="33.4939" width="263.925" height="79.0062" filterUnits="userSpaceOnUse" color-interpolation-filters="sRGB">
<feFlood flood-opacity="0" result="BackgroundImageFix"/>
<feColorMatrix in="SourceAlpha" type="matrix" values="0 0 0 0 0 0 0 0 0 0 0 0 0 0 0 0 0 0 127 0" result="hardAlpha"/>
<feOffset dy="4"/>
<feGaussianBlur stdDeviation="2"/>
<feComposite in2="hardAlpha" operator="out"/>
<feColorMatrix type="matrix" values="0 0 0 0 0 0 0 0 0 0 0 0 0 0 0 0 0 0 0.25 0"/>
<feBlend mode="normal" in2="BackgroundImageFix" result="effect1_dropShadow_309_291"/>
<feBlend mode="normal" in="SourceGraphic" in2="effect1_dropShadow_309_291" result="shape"/>
</filter>
<filter id="filter1_d_309_291" x="143.087" y="33.494" width="263.925" height="79.0062" filterUnits="userSpaceOnUse" color-interpolation-filters="sRGB">
<feFlood flood-opacity="0" result="BackgroundImageFix"/>
<feColorMatrix in="SourceAlpha" type="matrix" values="0 0 0 0 0 0 0 0 0 0 0 0 0 0 0 0 0 0 127 0" result="hardAlpha"/>
<feOffset dy="4"/>
<feGaussianBlur stdDeviation="2"/>
<feComposite in2="hardAlpha" operator="out"/>
<feColorMatrix type="matrix" values="0 0 0 0 0 0 0 0 0 0 0 0 0 0 0 0 0 0 0.25 0"/>
<feBlend mode="normal" in2="BackgroundImageFix" result="effect1_dropShadow_309_291"/>
<feBlend mode="normal" in="SourceGraphic" in2="effect1_dropShadow_309_291" result="shape"/>
</filter>
<filter id="filter2_d_309_291" x="143.087" y="33.4939" width="263.925" height="79.0062" filterUnits="userSpaceOnUse" color-interpolation-filters="sRGB">
<feFlood flood-opacity="0" result="BackgroundImageFix"/>
<feColorMatrix in="SourceAlpha" type="matrix" values="0 0 0 0 0 0 0 0 0 0 0 0 0 0 0 0 0 0 127 0" result="hardAlpha"/>
<feOffset dy="4"/>
<feGaussianBlur stdDeviation="2"/>
<feComposite in2="hardAlpha" operator="out"/>
<feColorMatrix type="matrix" values="0 0 0 0 0 0 0 0 0 0 0 0 0 0 0 0 0 0 0.25 0"/>
<feBlend mode="normal" in2="BackgroundImageFix" result="effect1_dropShadow_309_291"/>
<feBlend mode="normal" in="SourceGraphic" in2="effect1_dropShadow_309_291" result="shape"/>
</filter>
<filter id="filter3_d_309_291" x="143.087" y="33.4939" width="263.925" height="79.0062" filterUnits="userSpaceOnUse" color-interpolation-filters="sRGB">
<feFlood flood-opacity="0" result="BackgroundImageFix"/>
<feColorMatrix in="SourceAlpha" type="matrix" values="0 0 0 0 0 0 0 0 0 0 0 0 0 0 0 0 0 0 127 0" result="hardAlpha"/>
<feOffset dy="4"/>
<feGaussianBlur stdDeviation="2"/>
<feComposite in2="hardAlpha" operator="out"/>
<feColorMatrix type="matrix" values="0 0 0 0 0 0 0 0 0 0 0 0 0 0 0 0 0 0 0.25 0"/>
<feBlend mode="normal" in2="BackgroundImageFix" result="effect1_dropShadow_309_291"/>
<feBlend mode="normal" in="SourceGraphic" in2="effect1_dropShadow_309_291" result="shape"/>
</filter>
<filter id="filter4_d_309_291" x="144.087" y="33.494" width="263.925" height="79.0062" filterUnits="userSpaceOnUse" color-interpolation-filters="sRGB">
<feFlood flood-opacity="0" result="BackgroundImageFix"/>
<feColorMatrix in="SourceAlpha" type="matrix" values="0 0 0 0 0 0 0 0 0 0 0 0 0 0 0 0 0 0 127 0" result="hardAlpha"/>
<feOffset dy="4"/>
<feGaussianBlur stdDeviation="2"/>
<feComposite in2="hardAlpha" operator="out"/>
<feColorMatrix type="matrix" values="0 0 0 0 0 0 0 0 0 0 0 0 0 0 0 0 0 0 0.25 0"/>
<feBlend mode="normal" in2="BackgroundImageFix" result="effect1_dropShadow_309_291"/>
<feBlend mode="normal" in="SourceGraphic" in2="effect1_dropShadow_309_291" result="shape"/>
</filter>
<filter id="filter5_dd_309_291" x="21.8682" y="15.0487" width="99.4082" height="104.297" filterUnits="userSpaceOnUse" color-interpolation-filters="sRGB">
<feFlood flood-opacity="0" result="BackgroundImageFix"/>
<feColorMatrix in="SourceAlpha" type="matrix" values="0 0 0 0 0 0 0 0 0 0 0 0 0 0 0 0 0 0 127 0" result="hardAlpha"/>
<feOffset dy="4"/>
<feGaussianBlur stdDeviation="2"/>
<feComposite in2="hardAlpha" operator="out"/>
<feColorMatrix type="matrix" values="0 0 0 0 0 0 0 0 0 0 0 0 0 0 0 0 0 0 0.25 0"/>
<feBlend mode="normal" in2="BackgroundImageFix" result="effect1_dropShadow_309_291"/>
<feColorMatrix in="SourceAlpha" type="matrix" values="0 0 0 0 0 0 0 0 0 0 0 0 0 0 0 0 0 0 127 0" result="hardAlpha"/>
<feOffset dy="4"/>
<feGaussianBlur stdDeviation="2"/>
<feComposite in2="hardAlpha" operator="out"/>
<feColorMatrix type="matrix" values="0 0 0 0 0 0 0 0 0 0 0 0 0 0 0 0 0 0 0.25 0"/>
<feBlend mode="normal" in2="effect1_dropShadow_309_291" result="effect2_dropShadow_309_291"/>
<feBlend mode="normal" in="SourceGraphic" in2="effect2_dropShadow_309_291" result="shape"/>
</filter>
<filter id="filter6_d_309_291" x="33.6262" y="30.348" width="75.8936" height="85.6508" filterUnits="userSpaceOnUse" color-interpolation-filters="sRGB">
<feFlood flood-opacity="0" result="BackgroundImageFix"/>
<feColorMatrix in="SourceAlpha" type="matrix" values="0 0 0 0 0 0 0 0 0 0 0 0 0 0 0 0 0 0 127 0" result="hardAlpha"/>
<feOffset dy="4"/>
<feGaussianBlur stdDeviation="2"/>
<feComposite in2="hardAlpha" operator="out"/>
<feColorMatrix type="matrix" values="0 0 0 0 0 0 0 0 0 0 0 0 0 0 0 0 0 0 0.25 0"/>
<feBlend mode="normal" in2="BackgroundImageFix" result="effect1_dropShadow_309_291"/>
<feBlend mode="normal" in="SourceGraphic" in2="effect1_dropShadow_309_291" result="shape"/>
</filter>
<filter id="filter7_d_309_291" x="21.8682" y="49.8605" width="99.4082" height="46.6263" filterUnits="userSpaceOnUse" color-interpolation-filters="sRGB">
<feFlood flood-opacity="0" result="BackgroundImageFix"/>
<feColorMatrix in="SourceAlpha" type="matrix" values="0 0 0 0 0 0 0 0 0 0 0 0 0 0 0 0 0 0 127 0" result="hardAlpha"/>
<feOffset dy="4"/>
<feGaussianBlur stdDeviation="2"/>
<feComposite in2="hardAlpha" operator="out"/>
<feColorMatrix type="matrix" values="0 0 0 0 0 0 0 0 0 0 0 0 0 0 0 0 0 0 0.25 0"/>
<feBlend mode="normal" in2="BackgroundImageFix" result="effect1_dropShadow_309_291"/>
<feBlend mode="normal" in="SourceGraphic" in2="effect1_dropShadow_309_291" result="shape"/>
</filter>
<filter id="filter8_i_309_291" x="28.6445" y="36.887" width="84.3667" height="66.5931" filterUnits="userSpaceOnUse" color-interpolation-filters="sRGB">
<feFlood flood-opacity="0" result="BackgroundImageFix"/>
<feBlend mode="normal" in="SourceGraphic" in2="BackgroundImageFix" result="shape"/>
<feColorMatrix in="SourceAlpha" type="matrix" values="0 0 0 0 0 0 0 0 0 0 0 0 0 0 0 0 0 0 127 0" result="hardAlpha"/>
<feOffset dy="4"/>
<feGaussianBlur stdDeviation="2"/>
<feComposite in2="hardAlpha" operator="arithmetic" k2="-1" k3="1"/>
<feColorMatrix type="matrix" values="0 0 0 0 0 0 0 0 0 0 0 0 0 0 0 0 0 0 0.25 0"/>
<feBlend mode="normal" in2="shape" result="effect1_innerShadow_309_291"/>
</filter>
<filter id="filter9_d_309_291" x="45.0417" y="15.8269" width="47.5366" height="102.516" filterUnits="userSpaceOnUse" color-interpolation-filters="sRGB">
<feFlood flood-opacity="0" result="BackgroundImageFix"/>
<feColorMatrix in="SourceAlpha" type="matrix" values="0 0 0 0 0 0 0 0 0 0 0 0 0 0 0 0 0 0 127 0" result="hardAlpha"/>
<feOffset dy="4"/>
<feGaussianBlur stdDeviation="2"/>
<feComposite in2="hardAlpha" operator="out"/>
<feColorMatrix type="matrix" values="0 0 0 0 0 0 0 0 0 0 0 0 0 0 0 0 0 0 0.25 0"/>
<feBlend mode="normal" in2="BackgroundImageFix" result="effect1_dropShadow_309_291"/>
<feBlend mode="normal" in="SourceGraphic" in2="effect1_dropShadow_309_291" result="shape"/>
</filter>
<filter id="filter10_d_309_291" x="45.1145" y="15.0487" width="48.7034" height="104.297" filterUnits="userSpaceOnUse" color-interpolation-filters="sRGB">
<feFlood flood-opacity="0" result="BackgroundImageFix"/>
<feColorMatrix in="SourceAlpha" type="matrix" values="0 0 0 0 0 0 0 0 0 0 0 0 0 0 0 0 0 0 127 0" result="hardAlpha"/>
<feOffset dy="4"/>
<feGaussianBlur stdDeviation="2"/>
<feComposite in2="hardAlpha" operator="out"/>
<feColorMatrix type="matrix" values="0 0 0 0 0 0 0 0 0 0 0 0 0 0 0 0 0 0 0.25 0"/>
<feBlend mode="normal" in2="BackgroundImageFix" result="effect1_dropShadow_309_291"/>
<feBlend mode="normal" in="SourceGraphic" in2="effect1_dropShadow_309_291" result="shape"/>
</filter>
<filter id="filter11_dd_309_291" x="21.7329" y="14.3727" width="100.115" height="104.692" filterUnits="userSpaceOnUse" color-interpolation-filters="sRGB">
<feFlood flood-opacity="0" result="BackgroundImageFix"/>
<feColorMatrix in="SourceAlpha" type="matrix" values="0 0 0 0 0 0 0 0 0 0 0 0 0 0 0 0 0 0 127 0" result="hardAlpha"/>
<feOffset dy="4"/>
<feGaussianBlur stdDeviation="2"/>
<feComposite in2="hardAlpha" operator="out"/>
<feColorMatrix type="matrix" values="0 0 0 0 0 0 0 0 0 0 0 0 0 0 0 0 0 0 0.25 0"/>
<feBlend mode="normal" in2="BackgroundImageFix" result="effect1_dropShadow_309_291"/>
<feColorMatrix in="SourceAlpha" type="matrix" values="0 0 0 0 0 0 0 0 0 0 0 0 0 0 0 0 0 0 127 0" result="hardAlpha"/>
<feOffset dy="4"/>
<feGaussianBlur stdDeviation="2"/>
<feComposite in2="hardAlpha" operator="out"/>
<feColorMatrix type="matrix" values="0 0 0 0 0 0 0 0 0 0 0 0 0 0 0 0 0 0 0.25 0"/>
<feBlend mode="normal" in2="effect1_dropShadow_309_291" result="effect2_dropShadow_309_291"/>
<feBlend mode="normal" in="SourceGraphic" in2="effect2_dropShadow_309_291" result="shape"/>
</filter>
<filter id="filter12_d_309_291" x="33.4907" y="29.672" width="75.8936" height="85.6508" filterUnits="userSpaceOnUse" color-interpolation-filters="sRGB">
<feFlood flood-opacity="0" result="BackgroundImageFix"/>
<feColorMatrix in="SourceAlpha" type="matrix" values="0 0 0 0 0 0 0 0 0 0 0 0 0 0 0 0 0 0 127 0" result="hardAlpha"/>
<feOffset dy="4"/>
<feGaussianBlur stdDeviation="2"/>
<feComposite in2="hardAlpha" operator="out"/>
<feColorMatrix type="matrix" values="0 0 0 0 0 0 0 0 0 0 0 0 0 0 0 0 0 0 0.25 0"/>
<feBlend mode="normal" in2="BackgroundImageFix" result="effect1_dropShadow_309_291"/>
<feBlend mode="normal" in="SourceGraphic" in2="effect1_dropShadow_309_291" result="shape"/>
</filter>
<filter id="filter13_d_309_291" x="21.7329" y="49.1844" width="99.4082" height="46.6263" filterUnits="userSpaceOnUse" color-interpolation-filters="sRGB">
<feFlood flood-opacity="0" result="BackgroundImageFix"/>
<feColorMatrix in="SourceAlpha" type="matrix" values="0 0 0 0 0 0 0 0 0 0 0 0 0 0 0 0 0 0 127 0" result="hardAlpha"/>
<feOffset dy="4"/>
<feGaussianBlur stdDeviation="2"/>
<feComposite in2="hardAlpha" operator="out"/>
<feColorMatrix type="matrix" values="0 0 0 0 0 0 0 0 0 0 0 0 0 0 0 0 0 0 0.25 0"/>
<feBlend mode="normal" in2="BackgroundImageFix" result="effect1_dropShadow_309_291"/>
<feBlend mode="normal" in="SourceGraphic" in2="effect1_dropShadow_309_291" result="shape"/>
</filter>
<filter id="filter14_i_309_291" x="28.509" y="36.2109" width="84.3667" height="66.5931" filterUnits="userSpaceOnUse" color-interpolation-filters="sRGB">
<feFlood flood-opacity="0" result="BackgroundImageFix"/>
<feBlend mode="normal" in="SourceGraphic" in2="BackgroundImageFix" result="shape"/>
<feColorMatrix in="SourceAlpha" type="matrix" values="0 0 0 0 0 0 0 0 0 0 0 0 0 0 0 0 0 0 127 0" result="hardAlpha"/>
<feOffset dy="4"/>
<feGaussianBlur stdDeviation="2"/>
<feComposite in2="hardAlpha" operator="arithmetic" k2="-1" k3="1"/>
<feColorMatrix type="matrix" values="0 0 0 0 0 0 0 0 0 0 0 0 0 0 0 0 0 0 0.25 0"/>
<feBlend mode="normal" in2="shape" result="effect1_innerShadow_309_291"/>
</filter>
<filter id="filter15_d_309_291" x="44.9065" y="15.151" width="47.5366" height="102.516" filterUnits="userSpaceOnUse" color-interpolation-filters="sRGB">
<feFlood flood-opacity="0" result="BackgroundImageFix"/>
<feColorMatrix in="SourceAlpha" type="matrix" values="0 0 0 0 0 0 0 0 0 0 0 0 0 0 0 0 0 0 127 0" result="hardAlpha"/>
<feOffset dy="4"/>
<feGaussianBlur stdDeviation="2"/>
<feComposite in2="hardAlpha" operator="out"/>
<feColorMatrix type="matrix" values="0 0 0 0 0 0 0 0 0 0 0 0 0 0 0 0 0 0 0.25 0"/>
<feBlend mode="normal" in2="BackgroundImageFix" result="effect1_dropShadow_309_291"/>
<feBlend mode="normal" in="SourceGraphic" in2="effect1_dropShadow_309_291" result="shape"/>
</filter>
<filter id="filter16_d_309_291" x="44.9792" y="14.3727" width="48.7034" height="104.297" filterUnits="userSpaceOnUse" color-interpolation-filters="sRGB">
<feFlood flood-opacity="0" result="BackgroundImageFix"/>
<feColorMatrix in="SourceAlpha" type="matrix" values="0 0 0 0 0 0 0 0 0 0 0 0 0 0 0 0 0 0 127 0" result="hardAlpha"/>
<feOffset dy="4"/>
<feGaussianBlur stdDeviation="2"/>
<feComposite in2="hardAlpha" operator="out"/>
<feColorMatrix type="matrix" values="0 0 0 0 0 0 0 0 0 0 0 0 0 0 0 0 0 0 0.25 0"/>
<feBlend mode="normal" in2="BackgroundImageFix" result="effect1_dropShadow_309_291"/>
<feBlend mode="normal" in="SourceGraphic" in2="effect1_dropShadow_309_291" result="shape"/>
</filter>
<filter id="filter17_dd_309_291" x="22.4397" y="14.7673" width="99.4082" height="104.297" filterUnits="userSpaceOnUse" color-interpolation-filters="sRGB">
<feFlood flood-opacity="0" result="BackgroundImageFix"/>
<feColorMatrix in="SourceAlpha" type="matrix" values="0 0 0 0 0 0 0 0 0 0 0 0 0 0 0 0 0 0 127 0" result="hardAlpha"/>
<feOffset dy="4"/>
<feGaussianBlur stdDeviation="2"/>
<feComposite in2="hardAlpha" operator="out"/>
<feColorMatrix type="matrix" values="0 0 0 0 0 0 0 0 0 0 0 0 0 0 0 0 0 0 0.25 0"/>
<feBlend mode="normal" in2="BackgroundImageFix" result="effect1_dropShadow_309_291"/>
<feColorMatrix in="SourceAlpha" type="matrix" values="0 0 0 0 0 0 0 0 0 0 0 0 0 0 0 0 0 0 127 0" result="hardAlpha"/>
<feOffset dy="4"/>
<feGaussianBlur stdDeviation="2"/>
<feComposite in2="hardAlpha" operator="out"/>
<feColorMatrix type="matrix" values="0 0 0 0 0 0 0 0 0 0 0 0 0 0 0 0 0 0 0.25 0"/>
<feBlend mode="normal" in2="effect1_dropShadow_309_291" result="effect2_dropShadow_309_291"/>
<feBlend mode="normal" in="SourceGraphic" in2="effect2_dropShadow_309_291" result="shape"/>
</filter>
<filter id="filter18_d_309_291" x="33.491" y="30.0667" width="75.8936" height="85.6509" filterUnits="userSpaceOnUse" color-interpolation-filters="sRGB">
<feFlood flood-opacity="0" result="BackgroundImageFix"/>
<feColorMatrix in="SourceAlpha" type="matrix" values="0 0 0 0 0 0 0 0 0 0 0 0 0 0 0 0 0 0 127 0" result="hardAlpha"/>
<feOffset dy="4"/>
<feGaussianBlur stdDeviation="2"/>
<feComposite in2="hardAlpha" operator="out"/>
<feColorMatrix type="matrix" values="0 0 0 0 0 0 0 0 0 0 0 0 0 0 0 0 0 0 0.25 0"/>
<feBlend mode="normal" in2="BackgroundImageFix" result="effect1_dropShadow_309_291"/>
<feBlend mode="normal" in="SourceGraphic" in2="effect1_dropShadow_309_291" result="shape"/>
</filter>
<filter id="filter19_d_309_291" x="22.4397" y="49.182" width="99.4082" height="46.6263" filterUnits="userSpaceOnUse" color-interpolation-filters="sRGB">
<feFlood flood-opacity="0" result="BackgroundImageFix"/>
<feColorMatrix in="SourceAlpha" type="matrix" values="0 0 0 0 0 0 0 0 0 0 0 0 0 0 0 0 0 0 127 0" result="hardAlpha"/>
<feOffset dy="4"/>
<feGaussianBlur stdDeviation="2"/>
<feComposite in2="hardAlpha" operator="out"/>
<feColorMatrix type="matrix" values="0 0 0 0 0 0 0 0 0 0 0 0 0 0 0 0 0 0 0.25 0"/>
<feBlend mode="normal" in2="BackgroundImageFix" result="effect1_dropShadow_309_291"/>
<feBlend mode="normal" in="SourceGraphic" in2="effect1_dropShadow_309_291" result="shape"/>
</filter>
<filter id="filter20_i_309_291" x="28.5093" y="36.6056" width="84.3667" height="66.5931" filterUnits="userSpaceOnUse" color-interpolation-filters="sRGB">
<feFlood flood-opacity="0" result="BackgroundImageFix"/>
<feBlend mode="normal" in="SourceGraphic" in2="BackgroundImageFix" result="shape"/>
<feColorMatrix in="SourceAlpha" type="matrix" values="0 0 0 0 0 0 0 0 0 0 0 0 0 0 0 0 0 0 127 0" result="hardAlpha"/>
<feOffset dy="4"/>
<feGaussianBlur stdDeviation="2"/>
<feComposite in2="hardAlpha" operator="arithmetic" k2="-1" k3="1"/>
<feColorMatrix type="matrix" values="0 0 0 0 0 0 0 0 0 0 0 0 0 0 0 0 0 0 0.25 0"/>
<feBlend mode="normal" in2="shape" result="effect1_innerShadow_309_291"/>
</filter>
<filter id="filter21_d_309_291" x="44.9067" y="15.5455" width="47.5366" height="102.516" filterUnits="userSpaceOnUse" color-interpolation-filters="sRGB">
<feFlood flood-opacity="0" result="BackgroundImageFix"/>
<feColorMatrix in="SourceAlpha" type="matrix" values="0 0 0 0 0 0 0 0 0 0 0 0 0 0 0 0 0 0 127 0" result="hardAlpha"/>
<feOffset dy="4"/>
<feGaussianBlur stdDeviation="2"/>
<feComposite in2="hardAlpha" operator="out"/>
<feColorMatrix type="matrix" values="0 0 0 0 0 0 0 0 0 0 0 0 0 0 0 0 0 0 0.25 0"/>
<feBlend mode="normal" in2="BackgroundImageFix" result="effect1_dropShadow_309_291"/>
<feBlend mode="normal" in="SourceGraphic" in2="effect1_dropShadow_309_291" result="shape"/>
</filter>
<filter id="filter22_d_309_291" x="44.9792" y="14.7673" width="48.7034" height="104.297" filterUnits="userSpaceOnUse" color-interpolation-filters="sRGB">
<feFlood flood-opacity="0" result="BackgroundImageFix"/>
<feColorMatrix in="SourceAlpha" type="matrix" values="0 0 0 0 0 0 0 0 0 0 0 0 0 0 0 0 0 0 127 0" result="hardAlpha"/>
<feOffset dy="4"/>
<feGaussianBlur stdDeviation="2"/>
<feComposite in2="hardAlpha" operator="out"/>
<feColorMatrix type="matrix" values="0 0 0 0 0 0 0 0 0 0 0 0 0 0 0 0 0 0 0.25 0"/>
<feBlend mode="normal" in2="BackgroundImageFix" result="effect1_dropShadow_309_291"/>
<feBlend mode="normal" in="SourceGraphic" in2="effect1_dropShadow_309_291" result="shape"/>
</filter>
</defs>
</svg>
