<svg width="424" height="132" viewBox="0 0 424 132" fill="none" xmlns="http://www.w3.org/2000/svg">
<g filter="url(#filter0_d_385_146)">
<path d="M147.374 98.8003L151.187 57.0818L157.069 52.954L178.895 58.751L199.968 52.7514L205.988 57.1231L208.274 98.7127L198.876 99.2571L196.817 63.5664L183.133 67.3311L183.475 98.9298L174.176 99.1737L173.733 67.2755L160.116 63.5397L156.777 99.5559L147.374 98.8003ZM222.065 96.9476L218.241 91.6656L222.882 56.0433L227.064 52.0235L256.353 49.4852L260.964 51.9634L269.539 68.7231L266.269 75.4387L235.198 82.0854L233.158 72.995L258.233 67.4765L253.996 59.1964L231.604 61.0022L228.127 88.5189L262.555 94.7564L260.797 103.965L222.065 96.9476ZM274.695 98.7991L288.706 34.0323L297.914 35.9888L284.004 100.755L274.695 98.7991ZM295.12 81.8025L294.989 75.0031L315.102 55.6079L321.633 62.3771L305.203 78.1549L325.984 96.057L319.816 103.186L295.12 81.8025ZM331.042 98.5331L345.053 33.7662L354.261 35.7228L340.351 100.489L331.042 98.5331ZM351.467 81.5365L351.336 74.737L371.449 55.3418L377.98 62.1111L361.55 77.8888L382.331 95.7909L376.163 102.92L351.467 81.5365ZM390.645 43.5511L399.733 41.0081L402.783 52.1939L393.695 54.7368L390.645 43.5511ZM388.398 100.262L393.121 60.5396L402.525 61.5952L397.803 101.318L388.398 100.262Z" fill="black"/>
</g>
<g filter="url(#filter1_d_385_146)">
<path d="M147.374 98.8004L151.187 57.0819L157.069 52.9541L178.895 58.7511L199.968 52.7516L205.988 57.1232L208.274 98.7129L198.876 99.2572L196.817 63.5666L183.133 67.3312L183.475 98.9299L174.176 99.1738L173.733 67.2756L160.116 63.5398L156.777 99.556L147.374 98.8004ZM222.065 96.9477L218.241 91.6657L222.882 56.0434L227.064 52.0236L256.353 49.4853L260.964 51.9636L269.539 68.7233L266.269 75.4388L235.198 82.0856L233.158 72.9951L258.233 67.4766L253.996 59.1965L231.604 61.0023L228.127 88.519L262.555 94.7565L260.797 103.965L222.065 96.9477ZM274.695 98.7993L288.706 34.0324L297.914 35.9889L284.004 100.755L274.695 98.7993ZM295.12 81.8026L294.989 75.0032L315.102 55.608L321.633 62.3772L305.203 78.155L325.984 96.0571L319.816 103.186L295.12 81.8026ZM331.042 98.5332L345.053 33.7663L354.261 35.7229L340.351 100.489L331.042 98.5332ZM351.467 81.5366L351.336 74.7371L371.449 55.342L377.98 62.1112L361.55 77.889L382.331 95.791L376.163 102.92L351.467 81.5366ZM390.645 43.5512L399.733 41.0083L402.783 52.194L393.695 54.7369L390.645 43.5512ZM388.398 100.262L393.121 60.5397L402.525 61.5953L397.803 101.318L388.398 100.262Z" fill="white"/>
</g>
<g filter="url(#filter2_dd_385_146)">
<g filter="url(#filter3_d_385_146)">
<path d="M71.573 69.1735C85.8233 88.3437 121.465 88.6008 97.3754 103.884C73.2861 119.168 85.8233 88.3437 71.573 69.1735C57.3227 50.0034 21.6812 49.7463 45.7706 34.4629C69.86 19.1795 57.3227 50.0034 71.573 69.1735Z" fill="white"/>
</g>
<g filter="url(#filter4_d_385_146)">
<path d="M71.5722 69.1738C96.3024 73.977 122.573 51.5992 116.35 77.8707C110.128 104.142 96.3024 73.977 71.5722 69.1738C46.842 64.3706 20.5715 86.7484 26.7942 60.4768C33.0169 34.2053 46.842 64.3706 71.5722 69.1738Z" fill="#BFFFF3"/>
</g>
<g filter="url(#filter5_i_385_146)">
<path d="M71.573 69.173C93.1004 56.7541 95.3517 19.2842 110.552 46.6865C121.597 71.5798 93.1004 56.7541 71.573 69.173C50.0455 81.592 47.9281 114.382 32.5941 91.6595C17.2601 68.937 50.0455 81.592 71.573 69.173Z" fill="#7FFFD4"/>
<path d="M71.573 69.173C93.1004 56.7541 95.3517 19.2842 110.552 46.6865C121.597 71.5798 93.1004 56.7541 71.573 69.173C50.0455 81.592 47.9281 114.382 32.5941 91.6595C17.2601 68.937 50.0455 81.592 71.573 69.173Z" fill="#B35555" fill-opacity="0.2"/>
</g>
<g filter="url(#filter6_d_385_146)">
<path d="M71.5736 69.1713C84.0026 42.449 42.3915 18.4873 71.6854 15.827C103.55 19.4337 82.5568 45.5575 71.5736 69.1713C63.4474 94.751 89.1843 114.712 60.6018 109.515C32.0192 104.319 64.5728 95.6684 71.5736 69.1713Z" fill="#464541"/>
</g>
<g filter="url(#filter7_d_385_146)">
<path d="M71.5742 69.1712C84.5068 43.1219 43.8637 17.1292 73.2564 15.0489C104.964 19.476 83.5171 45.1156 71.5742 69.1712C65.7375 91.9006 88.6661 116.421 60.3051 110.431C31.944 104.441 65.7375 91.9006 71.5742 69.1712Z" fill="#59B2A2"/>
</g>
</g>
<g filter="url(#filter8_dd_385_146)">
<g filter="url(#filter9_d_385_146)">
<path d="M71.4375 68.4975C85.6878 87.6677 121.329 87.9248 97.2399 103.208C73.1506 118.492 85.6878 87.6677 71.4375 68.4975C57.1872 49.3273 21.5457 49.0702 45.6351 33.7869C69.7245 18.5035 57.1872 49.3273 71.4375 68.4975Z" fill="white"/>
</g>
<g filter="url(#filter10_d_385_146)">
<path d="M71.4369 68.4977C96.1671 73.3009 122.438 50.9231 116.215 77.1947C109.992 103.466 96.1671 73.3009 71.4369 68.4977C46.7067 63.6946 20.4363 86.0723 26.6589 59.8008C32.8816 33.5293 46.7067 63.6946 71.4369 68.4977Z" fill="#BFFFF3"/>
</g>
<g filter="url(#filter11_i_385_146)">
<path d="M71.4375 68.497C92.9649 56.078 95.2161 18.6082 110.416 46.0105C121.461 70.9038 92.9649 56.078 71.4375 68.497C49.91 80.916 47.7926 113.706 32.4586 90.9835C17.1246 68.261 49.91 80.916 71.4375 68.497Z" fill="#7FFFD4"/>
<path d="M71.4375 68.497C92.9649 56.078 95.2161 18.6082 110.416 46.0105C121.461 70.9038 92.9649 56.078 71.4375 68.497C49.91 80.916 47.7926 113.706 32.4586 90.9835C17.1246 68.261 49.91 80.916 71.4375 68.497Z" fill="#B35555" fill-opacity="0.2"/>
</g>
<g filter="url(#filter12_d_385_146)">
<path d="M71.4383 68.4954C83.8673 41.773 42.2562 17.8114 71.5502 15.1511C103.415 18.7578 82.4215 44.8815 71.4383 68.4954C63.3122 94.0751 89.049 114.036 60.4665 108.839C31.884 103.643 64.4376 94.9925 71.4383 68.4954Z" fill="#464541"/>
</g>
<g filter="url(#filter13_d_385_146)">
<path d="M71.439 68.4952C84.3716 42.4459 43.7285 16.4532 73.1212 14.3728C104.828 18.7999 83.3818 44.4395 71.439 68.4952C65.6022 91.2246 88.5309 115.745 60.1698 109.755C31.8088 103.765 65.6022 91.2246 71.439 68.4952Z" fill="#59B2A2"/>
</g>
<g filter="url(#filter14_dd_385_146)">
<g filter="url(#filter15_d_385_146)">
<path d="M71.4378 68.8922C85.688 88.0623 121.33 88.3194 97.2402 103.603C73.1508 118.886 85.688 88.0623 71.4378 68.8922C57.1875 49.722 21.546 49.4649 45.6353 34.1815C69.7247 18.8981 57.1875 49.722 71.4378 68.8922Z" fill="white"/>
</g>
<g filter="url(#filter16_d_385_146)">
<path d="M72.1437 68.4953C96.8739 73.2985 123.144 50.9207 116.922 77.1922C110.699 103.464 96.8739 73.2985 72.1437 68.4953C47.4135 63.6921 21.1431 86.0699 27.3657 59.7984C33.5884 33.5268 47.4135 63.6921 72.1437 68.4953Z" fill="#BFFFF3"/>
</g>
<g filter="url(#filter17_i_385_146)">
<path d="M71.4377 68.8916C92.9652 56.4727 95.2164 19.0028 110.417 46.4051C121.461 71.2985 92.9652 56.4727 71.4377 68.8916C49.9103 81.3106 47.7928 114.101 32.4588 91.3782C17.1248 68.6557 49.9103 81.3106 71.4377 68.8916Z" fill="#7FFFD4"/>
</g>
<g filter="url(#filter18_d_385_146)">
<path d="M71.4386 68.8899C83.8676 42.1676 42.2565 18.206 71.5504 15.5457C103.415 19.1524 82.4218 45.2761 71.4386 68.8899C63.3124 94.4696 89.0493 114.431 60.4668 109.234C31.8842 104.037 64.4378 95.3871 71.4386 68.8899Z" fill="#464541"/>
</g>
<g filter="url(#filter19_d_385_146)">
<path d="M71.439 68.8897C84.3716 42.8404 43.7284 16.8477 73.1212 14.7674C104.828 19.1945 83.3818 44.8341 71.439 68.8897C65.6022 91.6191 88.5309 116.139 60.1698 110.15C31.8088 104.16 65.6022 91.6191 71.439 68.8897Z" fill="#59B2A2"/>
</g>
</g>
</g>
<defs>
<filter id="filter0_d_385_146" x="143.087" y="33.494" width="263.925" height="79.0062" filterUnits="userSpaceOnUse" color-interpolation-filters="sRGB">
<feFlood flood-opacity="0" result="BackgroundImageFix"/>
<feColorMatrix in="SourceAlpha" type="matrix" values="0 0 0 0 0 0 0 0 0 0 0 0 0 0 0 0 0 0 127 0" result="hardAlpha"/>
<feOffset dy="4"/>
<feGaussianBlur stdDeviation="2"/>
<feComposite in2="hardAlpha" operator="out"/>
<feColorMatrix type="matrix" values="0 0 0 0 0 0 0 0 0 0 0 0 0 0 0 0 0 0 0.25 0"/>
<feBlend mode="normal" in2="BackgroundImageFix" result="effect1_dropShadow_385_146"/>
<feBlend mode="normal" in="SourceGraphic" in2="effect1_dropShadow_385_146" result="shape"/>
</filter>
<filter id="filter1_d_385_146" x="143.087" y="33.4941" width="263.925" height="79.0062" filterUnits="userSpaceOnUse" color-interpolation-filters="sRGB">
<feFlood flood-opacity="0" result="BackgroundImageFix"/>
<feColorMatrix in="SourceAlpha" type="matrix" values="0 0 0 0 0 0 0 0 0 0 0 0 0 0 0 0 0 0 127 0" result="hardAlpha"/>
<feOffset dy="4"/>
<feGaussianBlur stdDeviation="2"/>
<feComposite in2="hardAlpha" operator="out"/>
<feColorMatrix type="matrix" values="0 0 0 0 0 0 0 0 0 0 0 0 0 0 0 0 0 0 0.25 0"/>
<feBlend mode="normal" in2="BackgroundImageFix" result="effect1_dropShadow_385_146"/>
<feBlend mode="normal" in="SourceGraphic" in2="effect1_dropShadow_385_146" result="shape"/>
</filter>
<filter id="filter2_dd_385_146" x="21.8682" y="15.0488" width="99.4082" height="104.297" filterUnits="userSpaceOnUse" color-interpolation-filters="sRGB">
<feFlood flood-opacity="0" result="BackgroundImageFix"/>
<feColorMatrix in="SourceAlpha" type="matrix" values="0 0 0 0 0 0 0 0 0 0 0 0 0 0 0 0 0 0 127 0" result="hardAlpha"/>
<feOffset dy="4"/>
<feGaussianBlur stdDeviation="2"/>
<feComposite in2="hardAlpha" operator="out"/>
<feColorMatrix type="matrix" values="0 0 0 0 0 0 0 0 0 0 0 0 0 0 0 0 0 0 0.25 0"/>
<feBlend mode="normal" in2="BackgroundImageFix" result="effect1_dropShadow_385_146"/>
<feColorMatrix in="SourceAlpha" type="matrix" values="0 0 0 0 0 0 0 0 0 0 0 0 0 0 0 0 0 0 127 0" result="hardAlpha"/>
<feOffset dy="4"/>
<feGaussianBlur stdDeviation="2"/>
<feComposite in2="hardAlpha" operator="out"/>
<feColorMatrix type="matrix" values="0 0 0 0 0 0 0 0 0 0 0 0 0 0 0 0 0 0 0.25 0"/>
<feBlend mode="normal" in2="effect1_dropShadow_385_146" result="effect2_dropShadow_385_146"/>
<feBlend mode="normal" in="SourceGraphic" in2="effect2_dropShadow_385_146" result="shape"/>
</filter>
<filter id="filter3_d_385_146" x="33.6262" y="30.3481" width="75.8936" height="85.6508" filterUnits="userSpaceOnUse" color-interpolation-filters="sRGB">
<feFlood flood-opacity="0" result="BackgroundImageFix"/>
<feColorMatrix in="SourceAlpha" type="matrix" values="0 0 0 0 0 0 0 0 0 0 0 0 0 0 0 0 0 0 127 0" result="hardAlpha"/>
<feOffset dy="4"/>
<feGaussianBlur stdDeviation="2"/>
<feComposite in2="hardAlpha" operator="out"/>
<feColorMatrix type="matrix" values="0 0 0 0 0 0 0 0 0 0 0 0 0 0 0 0 0 0 0.25 0"/>
<feBlend mode="normal" in2="BackgroundImageFix" result="effect1_dropShadow_385_146"/>
<feBlend mode="normal" in="SourceGraphic" in2="effect1_dropShadow_385_146" result="shape"/>
</filter>
<filter id="filter4_d_385_146" x="21.8682" y="49.8606" width="99.4082" height="46.6263" filterUnits="userSpaceOnUse" color-interpolation-filters="sRGB">
<feFlood flood-opacity="0" result="BackgroundImageFix"/>
<feColorMatrix in="SourceAlpha" type="matrix" values="0 0 0 0 0 0 0 0 0 0 0 0 0 0 0 0 0 0 127 0" result="hardAlpha"/>
<feOffset dy="4"/>
<feGaussianBlur stdDeviation="2"/>
<feComposite in2="hardAlpha" operator="out"/>
<feColorMatrix type="matrix" values="0 0 0 0 0 0 0 0 0 0 0 0 0 0 0 0 0 0 0.25 0"/>
<feBlend mode="normal" in2="BackgroundImageFix" result="effect1_dropShadow_385_146"/>
<feBlend mode="normal" in="SourceGraphic" in2="effect1_dropShadow_385_146" result="shape"/>
</filter>
<filter id="filter5_i_385_146" x="28.6445" y="36.8871" width="84.3667" height="66.5931" filterUnits="userSpaceOnUse" color-interpolation-filters="sRGB">
<feFlood flood-opacity="0" result="BackgroundImageFix"/>
<feBlend mode="normal" in="SourceGraphic" in2="BackgroundImageFix" result="shape"/>
<feColorMatrix in="SourceAlpha" type="matrix" values="0 0 0 0 0 0 0 0 0 0 0 0 0 0 0 0 0 0 127 0" result="hardAlpha"/>
<feOffset dy="4"/>
<feGaussianBlur stdDeviation="2"/>
<feComposite in2="hardAlpha" operator="arithmetic" k2="-1" k3="1"/>
<feColorMatrix type="matrix" values="0 0 0 0 0 0 0 0 0 0 0 0 0 0 0 0 0 0 0.25 0"/>
<feBlend mode="normal" in2="shape" result="effect1_innerShadow_385_146"/>
</filter>
<filter id="filter6_d_385_146" x="45.0417" y="15.827" width="47.5366" height="102.516" filterUnits="userSpaceOnUse" color-interpolation-filters="sRGB">
<feFlood flood-opacity="0" result="BackgroundImageFix"/>
<feColorMatrix in="SourceAlpha" type="matrix" values="0 0 0 0 0 0 0 0 0 0 0 0 0 0 0 0 0 0 127 0" result="hardAlpha"/>
<feOffset dy="4"/>
<feGaussianBlur stdDeviation="2"/>
<feComposite in2="hardAlpha" operator="out"/>
<feColorMatrix type="matrix" values="0 0 0 0 0 0 0 0 0 0 0 0 0 0 0 0 0 0 0.25 0"/>
<feBlend mode="normal" in2="BackgroundImageFix" result="effect1_dropShadow_385_146"/>
<feBlend mode="normal" in="SourceGraphic" in2="effect1_dropShadow_385_146" result="shape"/>
</filter>
<filter id="filter7_d_385_146" x="45.1145" y="15.0488" width="48.7034" height="104.297" filterUnits="userSpaceOnUse" color-interpolation-filters="sRGB">
<feFlood flood-opacity="0" result="BackgroundImageFix"/>
<feColorMatrix in="SourceAlpha" type="matrix" values="0 0 0 0 0 0 0 0 0 0 0 0 0 0 0 0 0 0 127 0" result="hardAlpha"/>
<feOffset dy="4"/>
<feGaussianBlur stdDeviation="2"/>
<feComposite in2="hardAlpha" operator="out"/>
<feColorMatrix type="matrix" values="0 0 0 0 0 0 0 0 0 0 0 0 0 0 0 0 0 0 0.25 0"/>
<feBlend mode="normal" in2="BackgroundImageFix" result="effect1_dropShadow_385_146"/>
<feBlend mode="normal" in="SourceGraphic" in2="effect1_dropShadow_385_146" result="shape"/>
</filter>
<filter id="filter8_dd_385_146" x="21.7329" y="14.3728" width="100.115" height="104.692" filterUnits="userSpaceOnUse" color-interpolation-filters="sRGB">
<feFlood flood-opacity="0" result="BackgroundImageFix"/>
<feColorMatrix in="SourceAlpha" type="matrix" values="0 0 0 0 0 0 0 0 0 0 0 0 0 0 0 0 0 0 127 0" result="hardAlpha"/>
<feOffset dy="4"/>
<feGaussianBlur stdDeviation="2"/>
<feComposite in2="hardAlpha" operator="out"/>
<feColorMatrix type="matrix" values="0 0 0 0 0 0 0 0 0 0 0 0 0 0 0 0 0 0 0.25 0"/>
<feBlend mode="normal" in2="BackgroundImageFix" result="effect1_dropShadow_385_146"/>
<feColorMatrix in="SourceAlpha" type="matrix" values="0 0 0 0 0 0 0 0 0 0 0 0 0 0 0 0 0 0 127 0" result="hardAlpha"/>
<feOffset dy="4"/>
<feGaussianBlur stdDeviation="2"/>
<feComposite in2="hardAlpha" operator="out"/>
<feColorMatrix type="matrix" values="0 0 0 0 0 0 0 0 0 0 0 0 0 0 0 0 0 0 0.25 0"/>
<feBlend mode="normal" in2="effect1_dropShadow_385_146" result="effect2_dropShadow_385_146"/>
<feBlend mode="normal" in="SourceGraphic" in2="effect2_dropShadow_385_146" result="shape"/>
</filter>
<filter id="filter9_d_385_146" x="33.4907" y="29.6721" width="75.8936" height="85.6508" filterUnits="userSpaceOnUse" color-interpolation-filters="sRGB">
<feFlood flood-opacity="0" result="BackgroundImageFix"/>
<feColorMatrix in="SourceAlpha" type="matrix" values="0 0 0 0 0 0 0 0 0 0 0 0 0 0 0 0 0 0 127 0" result="hardAlpha"/>
<feOffset dy="4"/>
<feGaussianBlur stdDeviation="2"/>
<feComposite in2="hardAlpha" operator="out"/>
<feColorMatrix type="matrix" values="0 0 0 0 0 0 0 0 0 0 0 0 0 0 0 0 0 0 0.25 0"/>
<feBlend mode="normal" in2="BackgroundImageFix" result="effect1_dropShadow_385_146"/>
<feBlend mode="normal" in="SourceGraphic" in2="effect1_dropShadow_385_146" result="shape"/>
</filter>
<filter id="filter10_d_385_146" x="21.7329" y="49.1846" width="99.4082" height="46.6263" filterUnits="userSpaceOnUse" color-interpolation-filters="sRGB">
<feFlood flood-opacity="0" result="BackgroundImageFix"/>
<feColorMatrix in="SourceAlpha" type="matrix" values="0 0 0 0 0 0 0 0 0 0 0 0 0 0 0 0 0 0 127 0" result="hardAlpha"/>
<feOffset dy="4"/>
<feGaussianBlur stdDeviation="2"/>
<feComposite in2="hardAlpha" operator="out"/>
<feColorMatrix type="matrix" values="0 0 0 0 0 0 0 0 0 0 0 0 0 0 0 0 0 0 0.25 0"/>
<feBlend mode="normal" in2="BackgroundImageFix" result="effect1_dropShadow_385_146"/>
<feBlend mode="normal" in="SourceGraphic" in2="effect1_dropShadow_385_146" result="shape"/>
</filter>
<filter id="filter11_i_385_146" x="28.509" y="36.2111" width="84.3667" height="66.5931" filterUnits="userSpaceOnUse" color-interpolation-filters="sRGB">
<feFlood flood-opacity="0" result="BackgroundImageFix"/>
<feBlend mode="normal" in="SourceGraphic" in2="BackgroundImageFix" result="shape"/>
<feColorMatrix in="SourceAlpha" type="matrix" values="0 0 0 0 0 0 0 0 0 0 0 0 0 0 0 0 0 0 127 0" result="hardAlpha"/>
<feOffset dy="4"/>
<feGaussianBlur stdDeviation="2"/>
<feComposite in2="hardAlpha" operator="arithmetic" k2="-1" k3="1"/>
<feColorMatrix type="matrix" values="0 0 0 0 0 0 0 0 0 0 0 0 0 0 0 0 0 0 0.25 0"/>
<feBlend mode="normal" in2="shape" result="effect1_innerShadow_385_146"/>
</filter>
<filter id="filter12_d_385_146" x="44.9065" y="15.1511" width="47.5366" height="102.516" filterUnits="userSpaceOnUse" color-interpolation-filters="sRGB">
<feFlood flood-opacity="0" result="BackgroundImageFix"/>
<feColorMatrix in="SourceAlpha" type="matrix" values="0 0 0 0 0 0 0 0 0 0 0 0 0 0 0 0 0 0 127 0" result="hardAlpha"/>
<feOffset dy="4"/>
<feGaussianBlur stdDeviation="2"/>
<feComposite in2="hardAlpha" operator="out"/>
<feColorMatrix type="matrix" values="0 0 0 0 0 0 0 0 0 0 0 0 0 0 0 0 0 0 0.25 0"/>
<feBlend mode="normal" in2="BackgroundImageFix" result="effect1_dropShadow_385_146"/>
<feBlend mode="normal" in="SourceGraphic" in2="effect1_dropShadow_385_146" result="shape"/>
</filter>
<filter id="filter13_d_385_146" x="44.9792" y="14.3728" width="48.7034" height="104.297" filterUnits="userSpaceOnUse" color-interpolation-filters="sRGB">
<feFlood flood-opacity="0" result="BackgroundImageFix"/>
<feColorMatrix in="SourceAlpha" type="matrix" values="0 0 0 0 0 0 0 0 0 0 0 0 0 0 0 0 0 0 127 0" result="hardAlpha"/>
<feOffset dy="4"/>
<feGaussianBlur stdDeviation="2"/>
<feComposite in2="hardAlpha" operator="out"/>
<feColorMatrix type="matrix" values="0 0 0 0 0 0 0 0 0 0 0 0 0 0 0 0 0 0 0.25 0"/>
<feBlend mode="normal" in2="BackgroundImageFix" result="effect1_dropShadow_385_146"/>
<feBlend mode="normal" in="SourceGraphic" in2="effect1_dropShadow_385_146" result="shape"/>
</filter>
<filter id="filter14_dd_385_146" x="22.4397" y="14.7675" width="99.4082" height="104.297" filterUnits="userSpaceOnUse" color-interpolation-filters="sRGB">
<feFlood flood-opacity="0" result="BackgroundImageFix"/>
<feColorMatrix in="SourceAlpha" type="matrix" values="0 0 0 0 0 0 0 0 0 0 0 0 0 0 0 0 0 0 127 0" result="hardAlpha"/>
<feOffset dy="4"/>
<feGaussianBlur stdDeviation="2"/>
<feComposite in2="hardAlpha" operator="out"/>
<feColorMatrix type="matrix" values="0 0 0 0 0 0 0 0 0 0 0 0 0 0 0 0 0 0 0.25 0"/>
<feBlend mode="normal" in2="BackgroundImageFix" result="effect1_dropShadow_385_146"/>
<feColorMatrix in="SourceAlpha" type="matrix" values="0 0 0 0 0 0 0 0 0 0 0 0 0 0 0 0 0 0 127 0" result="hardAlpha"/>
<feOffset dy="4"/>
<feGaussianBlur stdDeviation="2"/>
<feComposite in2="hardAlpha" operator="out"/>
<feColorMatrix type="matrix" values="0 0 0 0 0 0 0 0 0 0 0 0 0 0 0 0 0 0 0.25 0"/>
<feBlend mode="normal" in2="effect1_dropShadow_385_146" result="effect2_dropShadow_385_146"/>
<feBlend mode="normal" in="SourceGraphic" in2="effect2_dropShadow_385_146" result="shape"/>
</filter>
<filter id="filter15_d_385_146" x="33.491" y="30.0668" width="75.8936" height="85.6509" filterUnits="userSpaceOnUse" color-interpolation-filters="sRGB">
<feFlood flood-opacity="0" result="BackgroundImageFix"/>
<feColorMatrix in="SourceAlpha" type="matrix" values="0 0 0 0 0 0 0 0 0 0 0 0 0 0 0 0 0 0 127 0" result="hardAlpha"/>
<feOffset dy="4"/>
<feGaussianBlur stdDeviation="2"/>
<feComposite in2="hardAlpha" operator="out"/>
<feColorMatrix type="matrix" values="0 0 0 0 0 0 0 0 0 0 0 0 0 0 0 0 0 0 0.25 0"/>
<feBlend mode="normal" in2="BackgroundImageFix" result="effect1_dropShadow_385_146"/>
<feBlend mode="normal" in="SourceGraphic" in2="effect1_dropShadow_385_146" result="shape"/>
</filter>
<filter id="filter16_d_385_146" x="22.4397" y="49.1821" width="99.4082" height="46.6263" filterUnits="userSpaceOnUse" color-interpolation-filters="sRGB">
<feFlood flood-opacity="0" result="BackgroundImageFix"/>
<feColorMatrix in="SourceAlpha" type="matrix" values="0 0 0 0 0 0 0 0 0 0 0 0 0 0 0 0 0 0 127 0" result="hardAlpha"/>
<feOffset dy="4"/>
<feGaussianBlur stdDeviation="2"/>
<feComposite in2="hardAlpha" operator="out"/>
<feColorMatrix type="matrix" values="0 0 0 0 0 0 0 0 0 0 0 0 0 0 0 0 0 0 0.25 0"/>
<feBlend mode="normal" in2="BackgroundImageFix" result="effect1_dropShadow_385_146"/>
<feBlend mode="normal" in="SourceGraphic" in2="effect1_dropShadow_385_146" result="shape"/>
</filter>
<filter id="filter17_i_385_146" x="28.5093" y="36.6057" width="84.3667" height="66.5931" filterUnits="userSpaceOnUse" color-interpolation-filters="sRGB">
<feFlood flood-opacity="0" result="BackgroundImageFix"/>
<feBlend mode="normal" in="SourceGraphic" in2="BackgroundImageFix" result="shape"/>
<feColorMatrix in="SourceAlpha" type="matrix" values="0 0 0 0 0 0 0 0 0 0 0 0 0 0 0 0 0 0 127 0" result="hardAlpha"/>
<feOffset dy="4"/>
<feGaussianBlur stdDeviation="2"/>
<feComposite in2="hardAlpha" operator="arithmetic" k2="-1" k3="1"/>
<feColorMatrix type="matrix" values="0 0 0 0 0 0 0 0 0 0 0 0 0 0 0 0 0 0 0.25 0"/>
<feBlend mode="normal" in2="shape" result="effect1_innerShadow_385_146"/>
</filter>
<filter id="filter18_d_385_146" x="44.9067" y="15.5457" width="47.5366" height="102.516" filterUnits="userSpaceOnUse" color-interpolation-filters="sRGB">
<feFlood flood-opacity="0" result="BackgroundImageFix"/>
<feColorMatrix in="SourceAlpha" type="matrix" values="0 0 0 0 0 0 0 0 0 0 0 0 0 0 0 0 0 0 127 0" result="hardAlpha"/>
<feOffset dy="4"/>
<feGaussianBlur stdDeviation="2"/>
<feComposite in2="hardAlpha" operator="out"/>
<feColorMatrix type="matrix" values="0 0 0 0 0 0 0 0 0 0 0 0 0 0 0 0 0 0 0.25 0"/>
<feBlend mode="normal" in2="BackgroundImageFix" result="effect1_dropShadow_385_146"/>
<feBlend mode="normal" in="SourceGraphic" in2="effect1_dropShadow_385_146" result="shape"/>
</filter>
<filter id="filter19_d_385_146" x="44.9792" y="14.7675" width="48.7034" height="104.297" filterUnits="userSpaceOnUse" color-interpolation-filters="sRGB">
<feFlood flood-opacity="0" result="BackgroundImageFix"/>
<feColorMatrix in="SourceAlpha" type="matrix" values="0 0 0 0 0 0 0 0 0 0 0 0 0 0 0 0 0 0 127 0" result="hardAlpha"/>
<feOffset dy="4"/>
<feGaussianBlur stdDeviation="2"/>
<feComposite in2="hardAlpha" operator="out"/>
<feColorMatrix type="matrix" values="0 0 0 0 0 0 0 0 0 0 0 0 0 0 0 0 0 0 0.25 0"/>
<feBlend mode="normal" in2="BackgroundImageFix" result="effect1_dropShadow_385_146"/>
<feBlend mode="normal" in="SourceGraphic" in2="effect1_dropShadow_385_146" result="shape"/>
</filter>
</defs>
</svg>
